<svg xmlns="http://www.w3.org/2000/svg" xmlns:xlink="http://www.w3.org/1999/xlink" width="368" height="80" viewBox="0 0 368 80">
  <defs>
    <clipPath id="clip-Final_Logo">
      <rect width="368" height="80"/>
    </clipPath>
  </defs>
  <g id="Final_Logo" data-name="Final Logo" clip-path="url(#clip-Final_Logo)">
    <g id="Group_6" data-name="Group 6" transform="translate(-5.257 1.99)">
      <path id="Path_21" data-name="Path 21" d="M473.27,121.761l-2-.767v-5.1a4.486,4.486,0,0,0-.172-1.283,1.793,1.793,0,0,0-.716-.987,1.594,1.594,0,0,0-1.158.271,1.4,1.4,0,0,0-.592.863,1.6,1.6,0,0,0,.172,1.108,2.613,2.613,0,0,0,1.108,1.012l-.643.863a6.04,6.04,0,0,1-2.069-1.849,3.146,3.146,0,0,1-.493-1.5,2.009,2.009,0,0,1,.347-1.184,2.316,2.316,0,0,1,.936-.741,2.844,2.844,0,0,1,1.206-.271,3.044,3.044,0,0,1,1.5.4A4.131,4.131,0,0,1,472,113.628a4.873,4.873,0,0,1,.888,1.454,4.374,4.374,0,0,1,.369,1.629v5.057h.006Zm-1.06,3.4a7.488,7.488,0,0,1-.936-.691,11.883,11.883,0,0,1-.961-.961q-.469-.546-.863-1.082a5.538,5.538,0,0,1-.617-1.06l.665-.961h2.244l1.652.863v3.4l-1.184.493v-.006Zm-1.012-2.886-.767-1.874h8.087l.541,1.874H471.2Zm8.307,6.289-1.454-.936V113.9l.617.271,1.429,1.257V128.4l-.592.172Zm-4.313-14.08-.741-1.232.22-.493h7.642l.741,1.232-.22.493Zm10.8,14.08-1.454-.936V113.9l.617.271,1.429,1.257V128.4l-.592.172h0Zm-3.673-14.08-.741-1.232.22-.493h7l.741,1.232-.22.493ZM497.3,128.9l-7.667-7.842.541-1.48h3.256l-1.108,2.441,6.314,5.175.025.42L497.3,128.9h0Zm-4.857-5.671-1.209-2.12a4.944,4.944,0,0,0,1.159-.493,2.062,2.062,0,0,0,.767-.812,2.864,2.864,0,0,0,.3-1.381V114.09l.837.271,1.209,1.012v3.278a3.1,3.1,0,0,1-.493,1.629,9.053,9.053,0,0,1-1.184,1.553q-.689.74-1.381,1.4h0Zm-3.647-8.752-.741-1.232.22-.493h10.181l.741,1.232-.22.493Zm15.249,14.2a23.5,23.5,0,0,1-3.278-3.774,6.328,6.328,0,0,1-1.257-3.526,3.614,3.614,0,0,1,.471-1.8,3.479,3.479,0,0,1,1.553-1.381,6.5,6.5,0,0,1,2.81-.516H509.3l.025,2h-3.969a4.985,4.985,0,0,0-2.934.691,2.248,2.248,0,0,0-.913,1.9,5.018,5.018,0,0,0,.716,2.269,15.4,15.4,0,0,0,2.737,3.278l-.91.863h0Zm5.793-.124-1.455-.936V113.891l.617.271,1.429,1.257v12.969l-.592.172Zm-11.391-14.08-.741-1.232.22-.493h14.719l.741,1.232-.22.493Zm23.17-1.454a5.931,5.931,0,0,1-1.356-1.7,3.731,3.731,0,0,1-.395-1.652,3.219,3.219,0,0,1,.691-2.12,4.411,4.411,0,0,1,1.824-1.257,6.919,6.919,0,0,1,2.39-.42,9.89,9.89,0,0,1,2.762.471,14.454,14.454,0,0,1,3.526,1.629,25.573,25.573,0,0,1,4.29,3.377l-.716.812a34.988,34.988,0,0,0-4.71-3.3,8.261,8.261,0,0,0-4.118-1.184,5.228,5.228,0,0,0-2.024.369,3.193,3.193,0,0,0-1.4,1.012,2.42,2.42,0,0,0-.493,1.528,3.355,3.355,0,0,0,.2,1.082,6.986,6.986,0,0,0,.767,1.356H521.62Zm1.232,15.531-1.454-.936V113.888l.617.271,1.429,1.257v12.969l-.592.172Zm-3.673-14.077-.741-1.232.22-.493h7l.741,1.232-.22.493Zm17.174,14.08-1.454-.936V113.891l.617.271,1.429,1.257v12.969l-.592.172ZM529.3,123.7c-.313-.313-.64-.674-.987-1.082a10.73,10.73,0,0,1-.913-1.333,11.849,11.849,0,0,1-.716-1.429L527.7,118.7h1.133l1.652,1.108v3.428l-1.181.471h0Zm-.516-3.132-.767-1.874h7.346l.541,1.874h-7.123Zm-3.129-6.088-.741-1.232.22-.493h14.029l.741,1.232-.22.493Zm20.289,11.1a6.056,6.056,0,0,1-2-.369A7.575,7.575,0,0,1,542,124.171a5.913,5.913,0,0,1-1.454-1.629,3.936,3.936,0,0,1-.567-2.069,3.511,3.511,0,0,1,.471-1.824,3.819,3.819,0,0,1,1.308-1.308,4.574,4.574,0,0,1,1.776-.665,4.662,4.662,0,0,1,1.973.076l3.673,1.776-.271,1.206a8.1,8.1,0,0,0-1.9-.936,5.526,5.526,0,0,0-1.75-.3,3.674,3.674,0,0,0-2.024.516,2.854,2.854,0,0,0-1.082,1.308,3.141,3.141,0,0,0-.149,1.652,2.868,2.868,0,0,0,.741,1.48,2.728,2.728,0,0,0,1.5.42,6.18,6.18,0,0,0,2-.3,5.563,5.563,0,0,0,1.9-1.06,3.5,3.5,0,0,0,1.133-1.8l.321,2.957A4.084,4.084,0,0,1,548,125.1a4.686,4.686,0,0,1-2.046.465h0Zm4.338,2.982-1.454-.936V113.891l.617.271,1.429,1.257v12.969l-.592.172Zm-11.12-14.08-.741-1.232.22-.493h14.446l.741,1.232-.22.493Zm17.617,14.08-1.454-.936V113.891l.617.271,1.429,1.257v12.969l-.592.172Zm-3.673-14.08-.741-1.232.22-.493h7l.741,1.232-.22.493Zm3.278-1.206a8.421,8.421,0,0,1-2.094-2.17,4.369,4.369,0,0,1-.837-2.466,3.159,3.159,0,0,1,.369-1.5,2.82,2.82,0,0,1,1.06-1.108,3.18,3.18,0,0,1,1.677-.42,4.1,4.1,0,0,1,1.629.321,4.922,4.922,0,0,1,1.206.716l-.369,1.108a3.14,3.14,0,0,0-1.677-.516,2.141,2.141,0,0,0-1.5.567,1.932,1.932,0,0,0-.643,1.553,3.848,3.848,0,0,0,.471,1.7,5.938,5.938,0,0,0,1.429,1.8l-.716.42h0ZM568.267,125.4a5.178,5.178,0,0,1-2.094-.42,7.723,7.723,0,0,1-1.578-.913,6.182,6.182,0,0,1-1.333-1.454,3.6,3.6,0,0,1-.567-1.973,3.321,3.321,0,0,1,.445-1.7,3.627,3.627,0,0,1,1.232-1.232l1.948,1.158a2.249,2.249,0,0,0-1.012.812,3.211,3.211,0,0,0-.541,1.257,3.921,3.921,0,0,0,0,1.381,2.321,2.321,0,0,0,.592,1.133,4.779,4.779,0,0,0,1.652.271,5.547,5.547,0,0,0,1.824-.369,4.925,4.925,0,0,0,1.677-1.037,4.386,4.386,0,0,0,1.159-1.725l1.454,1.283a5.757,5.757,0,0,1-2.069,2.661,4.973,4.973,0,0,1-2.788.865h0Zm-4.239-6.359-.592-.1h-2.957l-.691-1.133.22-.493h8.854l.741,1.232-.22.493H564.03Zm8.873,9.516-1.454-.936v-13.73l.617.271,1.429,1.257v12.969l-.592.172ZM559.588,114.48l-.741-1.232.22-.493h16.642l.741,1.232-.22.493Zm26.831,14.08-1.454-.936v-13.73l.617.271,1.429,1.257V128.39l-.592.172h0Zm-7.05-4.857c-.313-.313-.64-.674-.987-1.082a10.727,10.727,0,0,1-.913-1.333,11.87,11.87,0,0,1-.716-1.429l1.012-1.158H578.9l1.652,1.108v3.428l-1.181.471h0Zm-.516-3.132-.767-1.874h7.345l.541,1.874h-7.123Zm-3.132-6.088-.741-1.232.22-.493h14.029l.741,1.232-.22.493ZM603.274,127.2a5.543,5.543,0,0,1-1.579-.245,6.035,6.035,0,0,1-1.75-.888,9.9,9.9,0,0,1-1.849-1.849,17.673,17.673,0,0,1-1.849-3.081l1.108-.665a13.092,13.092,0,0,0,2.416,3.7,4.043,4.043,0,0,0,2.909,1.257,2.721,2.721,0,0,0,2.12-.812,2.675,2.675,0,0,0,.767-1.874,2.866,2.866,0,0,0-.321-1.308,2.477,2.477,0,0,0-.961-1.06,3.108,3.108,0,0,0-1.75-.445l2.046-.347L601,121.437l-1.108-1.948a4.635,4.635,0,0,1,1.108-.643,3.547,3.547,0,0,1,1.159-.245,4.623,4.623,0,0,1,1.184.051l.592.124a5.193,5.193,0,0,1,1.922,1.206,4.726,4.726,0,0,1,1.108,1.652,4.475,4.475,0,0,1,.369,1.75,3.919,3.919,0,0,1-.493,1.922,3.651,3.651,0,0,1-1.4,1.381,4.347,4.347,0,0,1-2.17.519h.006Zm-.073-7.1-1.973-1.06a6.065,6.065,0,0,0,2.046-.987,3.793,3.793,0,0,0,1.082-1.206,2.644,2.644,0,0,0,.321-1.158,1.908,1.908,0,0,0-.245-.936,1.8,1.8,0,0,0-.592-.665,4.3,4.3,0,0,0-2.17.471,7.946,7.946,0,0,0-2.294,1.553l-1.209-1.652a7.57,7.57,0,0,1,1.9-1.333,4.863,4.863,0,0,1,2.2-.541,3.871,3.871,0,0,1,1.553.321,4.053,4.053,0,0,1,1.308.837,3.822,3.822,0,0,1,.888,1.184,3.017,3.017,0,0,1,.321,1.356,3.732,3.732,0,0,1-.767,2.12,4.824,4.824,0,0,1-2.368,1.7h0V120.1Zm6.83,1.629a3.172,3.172,0,0,1-2.094.2,9.249,9.249,0,0,1-2.886-1.333l.22-.837a5.109,5.109,0,0,0,1.308.541,4.539,4.539,0,0,0,1.308.149,3.858,3.858,0,0,0,1.184-.22,2.976,2.976,0,0,0,.961-.592v2.094h0Zm1.209,6.83-1.455-.936V113.9l.617.271,1.429,1.257V128.4l-.592.172Zm-3.749-14.08-.741-1.232.22-.493h7.075l.741,1.232-.22.493ZM617.72,128.56l-1.454-.936v-13.73l.617.271,1.429,1.257V128.39l-.592.172h0Zm-3.673-14.077-.738-1.235.22-.493h7l.741,1.232-.22.493h-7.007Zm7.909,6.632-.716-1.037.321-.888a11.276,11.276,0,0,0,2.982-.691,1.448,1.448,0,0,0,.913-1.381,2.079,2.079,0,0,0-.812-1.629,21.008,21.008,0,0,0-2.39-1.776l1.257-.22a13.3,13.3,0,0,1,2,1.283,5.41,5.41,0,0,1,1.333,1.429,2.858,2.858,0,0,1,.493,1.629,2.469,2.469,0,0,1-.64,1.7,4.052,4.052,0,0,1-1.824,1.082,11.328,11.328,0,0,1-2.912.49h-.006ZM628,125.433a5.558,5.558,0,0,1-2.737-.741,9.047,9.047,0,0,1-2.365-1.948,10.774,10.774,0,0,1-1.652-2.661l2.17-.22a10.9,10.9,0,0,0,.567,1.973,4.254,4.254,0,0,0,1.108,1.652,3.878,3.878,0,0,0,1.528.271,5.925,5.925,0,0,0,1.824-.347,4.73,4.73,0,0,0,1.626-1.037,3.953,3.953,0,0,0,1.012-1.824l.767,2.54a3.613,3.613,0,0,1-1.108,1.454,4.134,4.134,0,0,1-1.4.691,4.946,4.946,0,0,1-1.33.2h0Zm4.189,3.132-1.454-.936V113.894l.617.271,1.429,1.257V128.39l-.592.172Zm-11.658-14.08-.741-1.232.22-.493H635l.741,1.232-.22.493Zm17.135-.665-3.007-4.265a3.523,3.523,0,0,0-2.39-1.725,4.554,4.554,0,0,0-2.909.913l-1.159-1.9a5.525,5.525,0,0,1,1.553-.913,3.777,3.777,0,0,1,1.776-.22,4.014,4.014,0,0,1,1.875.716,7.7,7.7,0,0,1,1.874,1.973l3.352,4.806-.961.614h0Zm1.012,14.742-1.455-.936V113.894l.617.271,1.429,1.257V128.39l-.592.172ZM635,114.483l-.741-1.232.22-.493h7l.741,1.232-.22.493Zm18.212,14.08-1.454-.936V113.894l.617.271,1.429,1.257V128.39l-.592.172Zm-7.371-3.969a9.745,9.745,0,0,1-.986-.665,11.2,11.2,0,0,1-.961-.863,10.145,10.145,0,0,1-.786-.987,4.29,4.29,0,0,1-.516-1.037l.691-.961h2.244l1.5.863V124.1l-1.184.493h0Zm1.184-2.565-2.046-.767v-7.371l.617.271,1.429,1.257v6.61h0Zm-5.547-7.546-.741-1.232.22-.493H656.02l.741,1.232-.22.493Z" transform="translate(-378.021 -92.539)"/>
      <g id="Group_5" data-name="Group 5" transform="translate(92.183 48.305)">
        <path id="Path_25" data-name="Path 25" d="M489.04,246.733v2.382h-9.93V236.29h9.69v2.382h-6.742v2.785h5.956v2.309h-5.956v2.968h6.982Z" transform="translate(-479.11 -234.692)"/>
        <path id="Path_26" data-name="Path 26" d="M522.01,233.55h2.858v13.6H522.01Z" transform="translate(-509.918 -232.724)"/>
        <path id="Path_27" data-name="Path 27" d="M549.313,252.173h-7.458a2.628,2.628,0,0,0,2.822,1.979,3.339,3.339,0,0,0,2.475-.953l1.522,1.649a5.161,5.161,0,0,1-4.068,1.6c-3.408,0-5.626-2.145-5.626-5.077a5.031,5.031,0,0,1,5.26-5.077,4.823,4.823,0,0,1,5.13,5.113C549.37,251.623,549.333,251.933,549.313,252.173Zm-7.5-1.669h4.857a2.463,2.463,0,0,0-4.857,0Z" transform="translate(-522.104 -241.873)"/>
        <path id="Path_28" data-name="Path 28" d="M579.99,251.367c0-2.968,2.292-5.077,5.5-5.077a4.527,4.527,0,0,1,4.41,2.51l-2.218,1.192a2.455,2.455,0,0,0-2.218-1.356,2.735,2.735,0,0,0,0,5.463,2.427,2.427,0,0,0,2.218-1.356l2.218,1.209a4.575,4.575,0,0,1-4.417,2.492c-3.208,0-5.5-2.108-5.5-5.077Z" transform="translate(-551.555 -241.873)"/>
        <path id="Path_29" data-name="Path 29" d="M624.885,250.635a4.079,4.079,0,0,1-2.328.623c-2.325,0-3.684-1.192-3.684-3.537v-4.05H617.35v-2.2h1.522v-2.4h2.858v2.4h2.455v2.2H621.73v4.014a1.15,1.15,0,0,0,1.226,1.3,1.939,1.939,0,0,0,1.156-.366l.769,2.015Z" transform="translate(-578.384 -236.688)"/>
        <path id="Path_30" data-name="Path 30" d="M648.57,232.215a1.635,1.635,0,0,1,1.779-1.6,1.6,1.6,0,0,1,1.779,1.539,1.786,1.786,0,0,1-3.557.054Zm.347,2.968h2.858v9.857h-2.858Z" transform="translate(-600.804 -230.62)"/>
        <path id="Path_31" data-name="Path 31" d="M666.76,251.367c0-2.968,2.292-5.077,5.423-5.077a5.087,5.087,0,1,1,0,10.153C669.049,256.443,666.76,254.335,666.76,251.367Zm7.935,0a2.528,2.528,0,1,0-2.511,2.731,2.488,2.488,0,0,0,2.511-2.731Z" transform="translate(-613.867 -241.873)"/>
        <path id="Path_32" data-name="Path 32" d="M722.017,250.661V256.3h-2.858v-5.2c0-1.6-.733-2.325-2-2.325-1.375,0-2.365.843-2.365,2.655v4.87H711.94v-9.857h2.731V247.6a4.319,4.319,0,0,1,3.261-1.3c2.328,0,4.087,1.356,4.087,4.361Z" transform="translate(-646.312 -241.88)"/>
        <path id="Path_33" data-name="Path 33" d="M773.093,242.142c0-3.867,2.968-6.632,6.962-6.632a6.619,6.619,0,0,1,5.277,2.272l-1.906,1.759a4.121,4.121,0,1,0-3.225,6.708,4.082,4.082,0,0,0,3.225-1.522l1.906,1.759a7.051,7.051,0,0,1-12.242-4.341Z" transform="translate(-690.225 -234.132)"/>
        <path id="Path_34" data-name="Path 34" d="M819.06,251.367c0-2.968,2.289-5.077,5.423-5.077a5.086,5.086,0,1,1,0,10.153C821.352,256.443,819.06,254.335,819.06,251.367Zm7.935,0a2.528,2.528,0,1,0-2.512,2.731,2.489,2.489,0,0,0,2.512-2.731Z" transform="translate(-723.238 -241.873)"/>
        <path id="Path_35" data-name="Path 35" d="M880.886,250.675v5.643h-2.858v-5.2c0-1.6-.716-2.325-1.869-2.325-1.282,0-2.182.823-2.182,2.585v4.947h-2.858v-5.2c0-1.6-.679-2.325-1.869-2.325-1.266,0-2.162.823-2.162,2.585v4.947H864.23v-9.857h2.731V247.6a3.993,3.993,0,0,1,3.1-1.283,3.677,3.677,0,0,1,3.244,1.612,4.424,4.424,0,0,1,3.555-1.612c2.345,0,4.031,1.356,4.031,4.361Z" transform="translate(-755.675 -241.895)"/>
        <path id="Path_36" data-name="Path 36" d="M949.076,250.675v5.643h-2.858v-5.2c0-1.6-.716-2.325-1.869-2.325-1.282,0-2.182.823-2.182,2.585v4.947h-2.858v-5.2c0-1.6-.68-2.325-1.869-2.325-1.266,0-2.162.823-2.162,2.585v4.947H932.42v-9.857h2.728V247.6a3.993,3.993,0,0,1,3.1-1.283,3.677,3.677,0,0,1,3.244,1.612,4.428,4.428,0,0,1,3.555-1.612c2.345,0,4.031,1.356,4.031,4.361Z" transform="translate(-804.645 -241.895)"/>
        <path id="Path_37" data-name="Path 37" d="M999.37,232.215a1.636,1.636,0,0,1,1.776-1.6,1.607,1.607,0,0,1,1.779,1.539,1.785,1.785,0,0,1-3.554.054Zm.347,2.968h2.858v9.857h-2.858Z" transform="translate(-852.723 -230.62)"/>
        <path id="Path_38" data-name="Path 38" d="M1016.79,255.388l.953-2.052a6.763,6.763,0,0,0,3.427.953c1.319,0,1.812-.35,1.812-.9,0-1.612-5.953.037-5.953-3.9,0-1.869,1.686-3.188,4.563-3.188a8.114,8.114,0,0,1,3.794.86l-.953,2.035a5.665,5.665,0,0,0-2.841-.733c-1.283,0-1.832.4-1.832.916,0,1.686,5.956.056,5.956,3.941,0,1.832-1.7,3.134-4.654,3.134a8.479,8.479,0,0,1-4.271-1.063Z" transform="translate(-865.233 -241.88)"/>
        <path id="Path_39" data-name="Path 39" d="M1051.3,255.388l.953-2.052a6.765,6.765,0,0,0,3.428.953c1.319,0,1.813-.35,1.813-.9,0-1.612-5.953.037-5.953-3.9,0-1.869,1.685-3.188,4.563-3.188a8.116,8.116,0,0,1,3.794.86l-.953,2.035a5.667,5.667,0,0,0-2.842-.733c-1.282,0-1.832.4-1.832.916,0,1.686,5.956.056,5.956,3.941,0,1.832-1.7,3.134-4.654,3.134a8.477,8.477,0,0,1-4.27-1.063Z" transform="translate(-890.016 -241.88)"/>
        <path id="Path_40" data-name="Path 40" d="M1087.96,232.215a1.636,1.636,0,0,1,1.776-1.6,1.607,1.607,0,0,1,1.779,1.539,1.785,1.785,0,0,1-3.555.054Zm.347,2.968h2.858v9.857h-2.858Z" transform="translate(-916.342 -230.62)"/>
        <path id="Path_41" data-name="Path 41" d="M1106.16,251.367c0-2.968,2.289-5.077,5.423-5.077a5.087,5.087,0,1,1,0,10.153C1108.45,256.443,1106.16,254.335,1106.16,251.367Zm7.935,0a2.528,2.528,0,1,0-2.512,2.731,2.489,2.489,0,0,0,2.507-2.731Z" transform="translate(-929.412 -241.873)"/>
        <path id="Path_42" data-name="Path 42" d="M1161.42,250.661V256.3h-2.858v-5.2c0-1.6-.733-2.325-2-2.325-1.376,0-2.365.843-2.365,2.655v4.87h-2.858v-9.857h2.729V247.6a4.319,4.319,0,0,1,3.261-1.3C1159.66,246.3,1161.42,247.656,1161.42,250.661Z" transform="translate(-961.857 -241.88)"/>
        <path id="Path_43" data-name="Path 43" d="M1212.05,251.367c0-2.968,2.289-5.077,5.423-5.077a5.087,5.087,0,1,1,0,10.153C1214.34,256.443,1212.05,254.335,1212.05,251.367Zm7.935,0a2.528,2.528,0,1,0-2.511,2.731,2.489,2.489,0,0,0,2.506-2.731Z" transform="translate(-1005.455 -241.873)"/>
        <path id="Path_44" data-name="Path 44" d="M1257.37,237.134h2.528v2.2h-2.455v7.439h-2.858v-7.439h-1.519v-2.2h1.519v-.44c0-2.218,1.356-3.664,3.811-3.664a4.061,4.061,0,0,1,2.182.53l-.753,2.072a2,2,0,0,0-1.153-.35c-.843,0-1.3.457-1.3,1.429Z" transform="translate(-1034.912 -232.351)"/>
        <path id="Path_45" data-name="Path 45" d="M1301.49,236.28h2.968V249.1h-2.968Z" transform="translate(-1069.684 -234.685)"/>
        <path id="Path_46" data-name="Path 46" d="M1332.17,250.661V256.3h-2.858v-5.2c0-1.6-.733-2.325-2-2.325-1.376,0-2.365.843-2.365,2.655v4.87h-2.858v-9.857h2.731V247.6a4.32,4.32,0,0,1,3.261-1.3c2.328,0,4.087,1.356,4.087,4.361Z" transform="translate(-1084.478 -241.88)"/>
        <path id="Path_47" data-name="Path 47" d="M1375.66,233.543v13.6h-2.731V246a3.79,3.79,0,0,1-3.078,1.283,5.079,5.079,0,0,1,0-10.153,3.8,3.8,0,0,1,2.951,1.19v-4.78h2.858Zm-2.8,8.668a2.528,2.528,0,1,0-2.511,2.731,2.5,2.5,0,0,0,2.5-2.732Z" transform="translate(-1115.235 -232.717)"/>
        <path id="Path_48" data-name="Path 48" d="M1411.14,232.215a1.636,1.636,0,0,1,1.776-1.6,1.607,1.607,0,0,1,1.779,1.539,1.785,1.785,0,0,1-3.555.054Zm.35,2.968h2.858v9.857h-2.858Z" transform="translate(-1148.427 -230.62)"/>
        <path id="Path_49" data-name="Path 49" d="M1439.02,250.67v5.63h-2.675v-1.229a3.233,3.233,0,0,1-3,1.376c-2.309,0-3.684-1.283-3.684-2.988s1.229-2.951,4.234-2.951h2.272c0-1.226-.733-1.942-2.272-1.942a4.736,4.736,0,0,0-2.842.916l-1.026-2a7.573,7.573,0,0,1,4.25-1.19c3,0,4.744,1.392,4.744,4.38Zm-2.858,2.511v-1.009H1434.2c-1.339,0-1.758.5-1.758,1.156,0,.716.606,1.19,1.612,1.19a2.11,2.11,0,0,0,2.109-1.339Z" transform="translate(-1161.727 -241.873)"/>
      </g>
    </g>
    <path id="Path_69" data-name="Path 69" d="M4.028,112.689l-.483-.483-.116.439.3.3.025-.025.025.025.254-.254h0Zm-.871,1.38-.683-.683.661-.661a.571.571,0,0,0,.149-.24.521.521,0,0,0,0-.28,1.208,1.208,0,0,0-.258-.523l-.058-.058a.514.514,0,0,0-.545-.109.748.748,0,0,0-.2.145.556.556,0,0,0-.185.487.762.762,0,0,0,.182.454l.214.243-.251.251-.294-.294-.04-.04-.062-.018-.069.007-.047.029L1.6,112.9a1.344,1.344,0,0,0-.069.7l.022.171a.326.326,0,0,0,.084.192l.047.047.084.022.062-.018.054-.054.283-.283.657.657.025-.025.025.025.28-.28h0Zm-.566-1.405-.04-.029-.113-.153-.076-.185a.637.637,0,0,1-.022-.192.234.234,0,0,1,.065-.145.28.28,0,0,1,.221-.105.526.526,0,0,1,.294.163l.062.065.025.091L3,112.246l-.029.058-.378.378v-.025h0Zm2.306.911L3.89,112.569l-.28.28.3.3-2.128,2.128.084.53,2.349-2.349.374.374.025-.025.025.025.254-.254h0Zm.839.839-1.006-1.006-.28.28.3.3L2.62,116.113l.084.53,2.349-2.349.374.374.025-.025.025.025.254-.254h0Zm1.757,1.757L5.619,114.3l-.28.28.89.886-.643.643-.389-.389a.141.141,0,0,0-.229,0l-.109.156-.073.211-.084.3-.116.566-.058.294-.069.381-.051.323-.036.367.385.1a2.494,2.494,0,0,1-.054-.454l.025-.454.073-.436a1.6,1.6,0,0,1,.109-.37,1.924,1.924,0,0,0,1.3-.53l.167-.2.142-.211.672.672.025-.025.025.025.254-.254h0Zm1.95,1.95-2.135-2.135-.28.28L8.465,117.7l-.4.4-.951-.951-.062-.062-.1-.029-.123-.015-.131.015-.127.029a.778.778,0,0,0-.32.211,1.583,1.583,0,0,0-.283.439,3.184,3.184,0,0,0-.218.694l-.109.537a.41.41,0,0,0,.025.28l.316.113-.015-.407.015-.258a1.924,1.924,0,0,1,.145-.606,1.132,1.132,0,0,1,.123-.229,1.444,1.444,0,0,1,.152-.182l.138-.105.145-.051h.142a.484.484,0,0,1,.123.08l.806.806-1.438,1.438.1.5L8.77,118l.374.374.025-.025.025.025.254-.254h0Zm3.947,3.762v-.174l-.011-.243-.069-.537a.779.779,0,0,0-.022-.134c-.011-.054-.022-.1-.025-.138a3.626,3.626,0,0,0-.243-.762,1.4,1.4,0,0,0-.251-.367,1.142,1.142,0,0,0-.258-.2,1.391,1.391,0,0,0-.265-.1.76.76,0,0,0-.323.033.914.914,0,0,0-.294.211l-.1.138-.062.189-.044.182-.015.113-.3-.3-.28.28.251.251-2.128,2.128.084.53,2.349-2.349.352.352.28-.276-.414-.414.018-.069.033-.149.033-.149.047-.076a.467.467,0,0,1,.389-.152.385.385,0,0,1,.229.04.785.785,0,0,1,.2.153,1.541,1.541,0,0,1,.312.487,3.442,3.442,0,0,1,.272,1.289.72.72,0,0,1-.033.276l.185.04.087-.087h0Zm.733.919-2.168-2.164-.28.276,1.467,1.467-.592.592-1.216-1.216-.029-.029a.184.184,0,0,0-.192.036l-.054.044-.065.327-.036.152-.036.251-.044.4.011.069.04.04a.114.114,0,0,0,.182,0l.472-.472.686.686L11.014,124.5l.069.526,2.349-2.349.374.374.025-.025.025.025.254-.254h0Zm1.928,1.928-2.015-2.015-.28.28,1.3,1.3L14,125.354l-.1.015a.726.726,0,0,1-.24-.015,1.139,1.139,0,0,1-.33-.083.843.843,0,0,1-.214-.149.819.819,0,0,1-.149-.2.561.561,0,0,1-.029-.174.6.6,0,0,1,.182-.356.532.532,0,0,1,.167-.109.5.5,0,0,1,.1-.029.778.778,0,0,1,.6.207.539.539,0,0,1,.152.105l.105.105.156.174.113-.483-.167-.167a2.581,2.581,0,0,0-.49-.33.706.706,0,0,0-.839.134,1.406,1.406,0,0,0-.251.338l-.058.207a.984.984,0,0,0-.04.185.908.908,0,0,0,.265.715l.171.131.269.113.189.062.04.011-.657.657.084.53,2.349-2.349.381.381.025-.025.025.025.254-.254h0Zm.85.85-1.006-1.006-.28.28.3.3-2.128,2.128.084.53,2.349-2.349.374.374.025-.025.025.025.254-.254h0Zm.806-1.253-.011-.087a.751.751,0,0,0-.251-.4.363.363,0,0,0-.182-.1.494.494,0,0,0-.214-.029.907.907,0,0,0-.657.628,1.534,1.534,0,0,0-.076.487v.207l.022.073.116.116.054-.033V125.1l.044-.272a.894.894,0,0,1,.16-.454l.1-.1.116-.116.113-.054a.355.355,0,0,1,.163,0,.372.372,0,0,1,.145.094l.058.062.051.087.04.087.033.047.087-.011v-.029h.073l.011-.113h0Zm1.492,3.551-2.389-2.389-.28.276,1.743,1.743-1.028,1.028h-.127l-.265-.029a1.254,1.254,0,0,1-.2-.044,1.2,1.2,0,0,1-.269-.1.912.912,0,0,1-.182-.142l-.185-.185-.076-.138a.273.273,0,0,1-.007-.16.389.389,0,0,1,.094-.131l.08-.08.131-.051.149-.011.178.011a.511.511,0,0,1,.127.018l.113.022.113.044.494.494.182-.436L16.2,126.225l-.167.421.439.457a.423.423,0,0,0-.24-.015.58.58,0,0,0-.316.113l-.087.087a.687.687,0,0,0-.149.672,1.3,1.3,0,0,0,.345.639.985.985,0,0,0,.211.153l.323.12.225.058.054.015-.69.69.062.516,2.349-2.349.338.338.025-.025.025.025.254-.254h0Zm2.073,2.073L19.1,127.783l-.28.28,1.467,1.467-.592.592L18.483,128.9l-.029-.029a.184.184,0,0,0-.192.036l-.054.044-.065.327-.036.152-.036.251-.044.4.011.069.04.04a.114.114,0,0,0,.182,0l.472-.472.686.686-1.253,1.253.069.526,2.349-2.349.374.374.025-.025.025.025.254-.254h0Zm4.571,4.571-1.311-1.311-.123.436.508.508-.8.8-.156-.04-.152-.073-.08-.04-.058-.04-.054-.054-.058-.058-.113-.113-.073-.131-.054-.131-.018-.127h.084l.156,0a.532.532,0,0,0,.2-.1l.113-.113a.766.766,0,0,0,.189-.316,1.194,1.194,0,0,0,.007-.788.5.5,0,0,0-.145-.254l-.073-.073-.142-.094c-.025-.015-.062-.033-.105-.054a1.039,1.039,0,0,0-.134-.054l-.1-.029-.142-.036-.113.454a.5.5,0,0,1,.345.076l.142.073.113.094a.48.48,0,0,1,.145.33.3.3,0,0,1-.025.185.756.756,0,0,1-.131.167.3.3,0,0,1-.207.087.844.844,0,0,1-.639-.3l-.109-.109-.091.461.1.152.16.113.174.062a.623.623,0,0,1-.051.269.844.844,0,0,1-.178.243l-.094.083a.768.768,0,0,1-.287.1.489.489,0,0,1-.392-.163.766.766,0,0,1-.218-.45,1.439,1.439,0,0,1,.084-.646,1.93,1.93,0,0,1,.421-.781l-.258-.084-.131.171a1.925,1.925,0,0,0-.221.476,4.011,4.011,0,0,0-.211.886,1.011,1.011,0,0,0,.258.824l.174.138a.871.871,0,0,0,.483.123.861.861,0,0,0,.526-.254l.1-.167.1-.3.033-.171.044-.182h-.069l.018.2.025.152.047.2a.614.614,0,0,0,.076.2.79.79,0,0,0,.123.16l.094.084.109.047.094.033H23.8l-1,1.006.069.526,2.349-2.349.327.327.025-.025.025.025.254-.254h0Zm.9.9-1.006-1.006-.28.28.3.3-2.128,2.128.084.53,2.349-2.349.374.374.025-.025.025.025.254-.254h0Zm1.979,1.979-2.1-2.1-.28.28.577.577-.022.1a.462.462,0,0,1-.04.08c0,.015-.022.04-.065.083l-.113.123-.113.094a.431.431,0,0,1-.363.051l-.167-.087-.109-.109-.087-.087a1.533,1.533,0,0,0-.309.436,2.058,2.058,0,0,0-.091.468,1.079,1.079,0,0,0,.08.439,1.228,1.228,0,0,0,.251.356l.076.069a.22.22,0,0,1,.076.058l.084.044.109.04a.665.665,0,0,0,.2.047h.131l-.784.792.069.526,2.349-2.349.327.327.025-.025.025.025.254-.254h0Zm-1.986.57-.2-.011-.171-.033-.138-.047-.127-.069a.691.691,0,0,1-.109-.087.741.741,0,0,1-.272-.585v-.062l.054-.167.156.127.1.044.109.047a.474.474,0,0,0,.232.018.838.838,0,0,0,.472-.251l.113-.152.087-.2.058-.174.011-.018.683.683-.933.933-.127.011h0Zm2.865.309-1.006-1.006-.28.28.3.3-2.128,2.128.084.53,2.349-2.349.374.374.025-.025.025.025.254-.254h0Zm-.374-.668.04-.167.029-.167.033-.152.025-.16.087-.468.062-.4a.089.089,0,0,0-.029-.058L29.448,136l-.08-.113-.1-.1-.556-.556-.182.523.468.468.084.123a.246.246,0,0,1,.015.123l-.123,1.071-.036.171.156.156v-.08l.062.044.025-.025.044-.2h0Zm2.382,2.672-2.1-2.1-.28.28.552.552-.635.635-.287-.287c-.076-.076-.142-.083-.2-.029a.954.954,0,0,0-.149.577l.022.349a.455.455,0,0,0,.1.2l.073.044.087.018.073-.015a.236.236,0,0,0,.084-.054l1.136-1.136.541.541-2.12,2.12.069.526,2.349-2.349.374.374.025-.025.025.025.254-.254h0Z" transform="translate(2.922 -66.057)"/>
    <path id="Path_70" data-name="Path 70" d="M28.51,142.527l-.08-.617.011-.011,2.1-2.1-.49-.49-1.111,1.111a.236.236,0,0,1-.1.062l-.084.018-.105-.025-.073-.044a.5.5,0,0,1-.113-.225l-.025-.356a.98.98,0,0,1,.16-.606c.04-.04.127-.091.247.029l.261.261.581-.585-.552-.552h0l-.258-.254L26.5,140.522l-.1-.621.015-.015,2.1-2.1-.3-.3h0l-.174-.174-2.378,2.375-.08-.617.011-.011.726-.726H26.28a.644.644,0,0,1-.214-.051l-.109-.04-.094-.051a.218.218,0,0,0-.065-.051l-.011-.007-.076-.069a1.185,1.185,0,0,1-.261-.367,1.151,1.151,0,0,1-.084-.454,2.138,2.138,0,0,1,.091-.479,1.679,1.679,0,0,1,.32-.454l.025-.025.218.218.16.084a.4.4,0,0,0,.33-.051l.109-.091.109-.12a.264.264,0,0,0,.054-.065v-.011h0a.2.2,0,0,0,.033-.065l.018-.084-.821-.821-2.375,2.375-.1-.621.015-.015,2.1-2.1-.49-.49L22.795,136.8l-.08-.617.011-.011.959-.959-.062-.022-.12-.054-.094-.083a.737.737,0,0,1-.211-.374l-.044-.178-.087.272-.105.182a.827.827,0,0,1-1.053.138l-.182-.138a1.061,1.061,0,0,1-.272-.857,4.341,4.341,0,0,1,.214-.893,1.984,1.984,0,0,1,.225-.483l.149-.2.341.109-.044.044a1.928,1.928,0,0,0-.414.766,1.431,1.431,0,0,0-.084.632.747.747,0,0,0,.207.428.449.449,0,0,0,.363.152.975.975,0,0,0,.272-.094l.087-.08a.911.911,0,0,0,.171-.229.527.527,0,0,0,.047-.229l-.16-.058-.167-.123-.109-.163.105-.541.156.156a.811.811,0,0,0,.614.294.288.288,0,0,0,.182-.076.734.734,0,0,0,.127-.16.29.29,0,0,0,.022-.163.475.475,0,0,0-.138-.316l-.105-.087-.134-.069a.494.494,0,0,0-.32-.073l-.058.011.134-.545.174.044.1.029a1.065,1.065,0,0,1,.142.058,1.007,1.007,0,0,0,.105.054l.145.094.08.076a.505.505,0,0,1,.156.272,1.248,1.248,0,0,1-.007.806.8.8,0,0,1-.2.33l-.113.113a.529.529,0,0,1-.211.105H23.5l-.156.011H23.3l.011.08.051.123.069.123.221.221.054.036.225.109.131.033.759-.759-.5-.5.145-.516,1.383,1.38h0l3.035,3.035v-.025l.131-1.068a.214.214,0,0,0-.011-.105l-.08-.116-.479-.479.207-.6.7.7.084.12.022.036a.108.108,0,0,1,.036.08l-.065.4-.087.468-.025.16-.033.152-.029.163-.087.378-.007.007,2.447,2.447-.3.3-.025-.025-.025.025-.374-.378L28.51,142.5Zm0-.592.058.436,2.324-2.324.374.378.025-.025.025.025.2-.2-1.953-1.953-.225.225.457.458-.686.686-.312-.312c-.087-.087-.127-.047-.145-.029a.922.922,0,0,0-.138.556l.022.345a.418.418,0,0,0,.087.182l.062.036.076.018.065-.014a.2.2,0,0,0,.065-.044l1.162-1.162.592.592-.025.025-2.11,2.11Zm-2.019-2.012.069.443,2.324-2.324.309.309.225-.225-.327-.327v.1l-.232-.232.018-.08-.192-.192-.225.225.171.171-.025.025-2.113,2.113Zm-.817-.824.058.436,2.324-2.324.225.225.225-.225-1.8-1.8-.225.225.447.447-.025.116a.227.227,0,0,1-.04.084.219.219,0,0,1-.073.094l-.113.123-.116.1a.491.491,0,0,1-.4.058l-.182-.094-.171-.171a1.454,1.454,0,0,0-.276.4,2.118,2.118,0,0,0-.087.457,1.052,1.052,0,0,0,.076.421,1.143,1.143,0,0,0,.243.341l.073.062a.315.315,0,0,1,.08.062l.08.04.1.036a.744.744,0,0,0,.192.047l.218.007-.831.831Zm3.609-.708.025.025.2-.2-.04-.04-.225.225.018.018.025-.025Zm-.33-.835.16.156.076-.341.029-.163.033-.153.025-.16.087-.468.062-.4A.215.215,0,0,0,29.4,136l-.007-.007-.022-.036-.08-.109-.614-.614-.152.447.454.454.087.127a.245.245,0,0,1,.018.149l-.123,1.067Zm-.625-.069.051.051.025-.025.025.025.2-.2-.076-.076-.225.225Zm-4.7-.421.069.443,2.324-2.324.283.283.225-.225-.73-.73-.225.225.189.189-.025.025-2.113,2.113Zm-.835-.842.058.436,2.324-2.324.243.243.225-.225L24.5,133.217l-.1.352.519.519-.839.839-.178-.044-.236-.113-.062-.044-.236-.236-.073-.131-.054-.134-.007-.054-.036.16.022.145.047.2a.707.707,0,0,0,.073.189.733.733,0,0,0,.12.152l.087.076.1.047.109.036.069.015L22.8,136.231Zm3.566-.7.04.04.025-.025.025.025.2-.2-.065-.065-.225.225Zm-4.281-2.894-.116.153a1.752,1.752,0,0,0-.214.461,4.194,4.194,0,0,0-.211.879,1,1,0,0,0,.247.8l.171.134a.755.755,0,0,0,.959-.123l.094-.163.094-.294.025-.138-.022-.24h.12l-.007-.044.127.007.145-.011a.413.413,0,0,0,.174-.087l.113-.113a.762.762,0,0,0,.182-.3,1.165,1.165,0,0,0,.007-.762.455.455,0,0,0-.138-.24l-.073-.073-.134-.087-.1-.051a.84.84,0,0,0-.127-.051l-.1-.029-.1-.025-.091.367a.641.641,0,0,1,.316.087l.142.073.12.1a.53.53,0,0,1,.16.363.334.334,0,0,1-.029.2.868.868,0,0,1-.138.174.349.349,0,0,1-.229.1.871.871,0,0,1-.668-.316l-.058-.058-.073.378.091.134.149.109.192.069v.025a.663.663,0,0,1-.054.287.856.856,0,0,1-.185.251l-.094.087a.944.944,0,0,1-.3.109.537.537,0,0,1-.421-.174.787.787,0,0,1-.229-.468,1.471,1.471,0,0,1,.087-.664,2.151,2.151,0,0,1,.389-.755l-.178-.058Zm3.449,2.015.025.025.2-.2-.054-.054-.225.225.033.033.025-.025Zm1.173,3.308h0l-.2-.011-.174-.036-.142-.051-.131-.069a.5.5,0,0,1-.116-.094.776.776,0,0,1-.283-.614v-.062l.069-.225.2.156.207.091a.488.488,0,0,0,.214.018.829.829,0,0,0,.454-.24l.109-.149.084-.2.069-.2.022-.044.744.744-.025.025-.94.94-.142.011Zm-.948-1.038-.033.113v.054a.7.7,0,0,0,.258.556.411.411,0,0,0,.1.08l.127.069.131.047.167.033.2.007.113-.007.9-.9-.617-.617-.047.142-.087.207-.116.16a.889.889,0,0,1-.5.261.507.507,0,0,1-.251-.022l-.221-.1-.113-.091ZM18.18,132.2l-.08-.617.011-.011,1.227-1.227-.635-.635-.447.447a.17.17,0,0,1-.12.058h0a.158.158,0,0,1-.113-.054l-.047-.047-.011-.083.044-.4.036-.251.036-.156.065-.338.062-.051a.219.219,0,0,1,.225-.044h.011l1.224,1.227.537-.537-1.467-1.467h0l-.218-.218-2.378,2.378-.073-.606.657-.657-.218-.058-.327-.12a1.024,1.024,0,0,1-.225-.16,1.329,1.329,0,0,1-.356-.654.734.734,0,0,1,.16-.7l.087-.087a.624.624,0,0,1,.338-.123.329.329,0,0,1,.134-.007l-.374-.389.2-.494,1.445,1.445-.211.508-.526-.526-.105-.04-.105-.018a.717.717,0,0,0-.123-.015l-.178-.011-.138.011-.116.044-.073.073a.313.313,0,0,0-.084.12.23.23,0,0,0,.007.138l.073.123.182.182a.748.748,0,0,0,.174.134,1.075,1.075,0,0,0,.261.1,1.218,1.218,0,0,0,.2.044l.265.029H17.2l.991-.991-2-2-2.375,2.375-.1-.621.015-.015,2.1-2.1-.494-.494-2.375,2.375-.1-.617.628-.628-.171-.058-.28-.116-.171-.131a.951.951,0,0,1-.28-.748.857.857,0,0,1,.044-.2l.058-.2a1.328,1.328,0,0,1,.261-.352.739.739,0,0,1,.879-.142,2.9,2.9,0,0,1,.5.334l.182.182-.123.53.588-.588-1.3-1.3h0l-.261-.261-2.375,2.375-.08-.617.011-.011L12.2,123.2l-.635-.635-.447.447a.17.17,0,0,1-.12.058h0a.158.158,0,0,1-.113-.054l-.047-.047-.011-.083h0l.044-.4.036-.251.036-.156.065-.341.062-.051a.219.219,0,0,1,.225-.044h.011l.036.04,1.187,1.187.537-.537-1.7-1.7-2.375,2.375-.1-.621.015-.015,2.1-2.1-.251-.247.33-.33.272.272v-.04l.051-.185.069-.2.1-.138a.951.951,0,0,1,.309-.221.725.725,0,0,1,.338-.036,1.279,1.279,0,0,1,.276.1,1.358,1.358,0,0,1,.269.207,1.452,1.452,0,0,1,.254.374,3.478,3.478,0,0,1,.247.77c.007.04.015.087.025.138s.018.1.022.138l.069.537.011.247v.192l-.076.076,2.927,2.927v-.08a1.6,1.6,0,0,1,.076-.5.883.883,0,0,1,.2-.363.934.934,0,0,1,.487-.29.5.5,0,0,1,.232.029.381.381,0,0,1,.192.109.784.784,0,0,1,.258.414l.011.094-.015.156h-.069v.018l-.142.015-.047-.062L17.4,124.3l-.047-.08-.058-.058a.247.247,0,0,0-.272-.084l-.1.047-.211.211a.856.856,0,0,0-.152.436l-.04.272v.073l.4.4h0l4.372,4.372-.3.3-.025-.025-.025.025-.374-.374L18.184,132.2Zm0-.592.058.436,2.324-2.324.374.374.025-.025.025.025.2-.2-2.022-2.022-.225.225,1.376,1.376-.643.643-.025-.025-1.238-1.238a.156.156,0,0,0-.149.029l-.044.036-.062.316-.036.152-.033.247-.044.392.007.051.029.029a.094.094,0,0,0,.062.033h0a.1.1,0,0,0,.069-.036l.5-.5.741.741-.025.025L18.18,131.6Zm-2.026-2.022.051.425,2.324-2.324.269.269.225-.225-2.153-2.153-.225.225,1.648,1.648-.025.025-1.038,1.038h-.142l-.269-.029a1.328,1.328,0,0,1-.207-.044,1.259,1.259,0,0,1-.276-.105.87.87,0,0,1-.189-.149l-.192-.192-.076-.138a.3.3,0,0,1-.007-.192.426.426,0,0,1,.1-.145l.091-.087.138-.051.149-.011.182.011a.54.54,0,0,1,.131.018l.113.022.134.054.454.454.149-.363-1.333-1.333-.138.349.421.443-.036.058a.38.38,0,0,0-.218-.015.6.6,0,0,0-.3.105l-.084.084a.652.652,0,0,0-.138.639,1.266,1.266,0,0,0,.334.621.811.811,0,0,0,.2.145l.32.116.338.091-.719.719ZM18.884,128l.025.025.2-.2-.04-.04-.225.225.018.018.025-.025Zm-5.091-.766.069.443,2.324-2.324.309.309.225-.225-.251-.251-.054.033-.145-.153-.025-.083v-.025l-.229-.229-.225.225.142.142-.025.025-2.113,2.113Zm-.853-.853.069.443,2.324-2.324.251.247.225-.225L14.088,122.8l-.225.225,1.216,1.216-.025.025-1.067,1.067-.113.018a.787.787,0,0,1-.251-.015,1.3,1.3,0,0,1-.338-.083.838.838,0,0,1-.225-.156.969.969,0,0,1-.156-.207.542.542,0,0,1-.033-.2.643.643,0,0,1,.192-.378.56.56,0,0,1,.178-.116.586.586,0,0,1,.105-.033.834.834,0,0,1,.621.211.564.564,0,0,1,.16.109l.022.022c.029.033.058.058.08.08l.113.123.091-.4-.152-.152a2.9,2.9,0,0,0-.476-.323.668.668,0,0,0-.8.127,1.339,1.339,0,0,0-.243.33l-.058.2a.972.972,0,0,0-.04.178.872.872,0,0,0,.254.686l.163.123.261.109.225.073.062.015-.69.69Zm3.649-.679.025.025.2-.2-.04-.04-.225.225.018.018.025-.025Zm-3.177-1.467h-.058a.553.553,0,0,0-.087.025.46.46,0,0,0-.152.1.561.561,0,0,0-.171.334.5.5,0,0,0,.029.16.944.944,0,0,0,.142.182.686.686,0,0,0,.2.142,1.191,1.191,0,0,0,.32.08.762.762,0,0,0,.229.015l.091-.015.414-.414-.189-.211c-.022-.022-.051-.047-.08-.08l-.022-.022a.564.564,0,0,0-.145-.1h-.007a.753.753,0,0,0-.512-.2Zm2.908.686.127.127v-.011l.04-.276a.9.9,0,0,1,.171-.476l.225-.221.113-.054a.466.466,0,0,1,.185-.007.437.437,0,0,1,.163.105l.065.069.051.087.044.091.018.022h.036v-.04h.076l.007-.073-.011-.084a.738.738,0,0,0-.24-.374.334.334,0,0,0-.163-.091.5.5,0,0,0-.2-.029.842.842,0,0,0-.443.272.868.868,0,0,0-.185.334,1.571,1.571,0,0,0-.073.476v.152Zm-5.287-.461.058.436,2.324-2.324.312.312.225-.225-.712-.712-.211-.044.022-.044a.433.433,0,0,0,.022-.08l-1.082-1.082-.225.225,1.4,1.4-.643.643-.025-.025L11.263,121.7a.156.156,0,0,0-.149.029l-.044.036-.062.316-.036.152-.033.247-.044.392.007.051.029.029a.08.08,0,0,0,.131,0l.5-.5.741.741-.025.025-1.242,1.242Zm4.706.389.025.025.2-.2-.105-.105-.225.225.08.08.025-.025Zm-1.964-1.913.011.011.025-.025.025.025.2-.2L14,122.7l-.225.225Zm-4.807-.53.069.443,2.324-2.324.283.283.225-.225-.334-.334.025-.091.073-.309.047-.076a.5.5,0,0,1,.421-.171.416.416,0,0,1,.243.044.918.918,0,0,1,.214.156,1.527,1.527,0,0,1,.32.5,3.5,3.5,0,0,1,.276,1.3,1,1,0,0,1-.007.156l.116.116.058-.058v-.16l-.011-.243-.069-.534a.746.746,0,0,0-.022-.131c-.011-.054-.022-.1-.025-.142a3.6,3.6,0,0,0-.24-.752,1.339,1.339,0,0,0-.243-.356,1.3,1.3,0,0,0-.251-.2,1.088,1.088,0,0,0-.254-.094.672.672,0,0,0-.3.033.858.858,0,0,0-.28.2l-.091.127-.062.185-.044.178-.022.182-.323-.323-.225.225.251.247-.025.025L8.972,122.4Zm4.165-.556h.011l-.011-.007Zm-1.089-1.2,1.038,1.038v-.087a3.51,3.51,0,0,0-.269-1.274,1.473,1.473,0,0,0-.3-.476.722.722,0,0,0-.2-.145.37.37,0,0,0-.207-.036.429.429,0,0,0-.367.142l-.04.065-.08.345.425.425h0Zm-.345.211.018.018.225-.225-.018-.018Zm-5.337-.487-.116-.585.015-.015,1.412-1.412-.781-.781a.245.245,0,0,0-.105-.062H6.659l-.134.04-.131.1a1.156,1.156,0,0,0-.145.174,1.262,1.262,0,0,0-.12.221,1.96,1.96,0,0,0-.145.6l-.015.258.018.454-.381-.134-.007-.011a.462.462,0,0,1-.029-.3l.109-.537a3.036,3.036,0,0,1,.221-.7,1.634,1.634,0,0,1,.29-.45.794.794,0,0,1,.334-.221l.127-.029.138-.015.131.015.113.033.069.069.926.926.349-.349-1.9-1.9-.116.174-.167.207a1.935,1.935,0,0,1-1.307.545,1.6,1.6,0,0,0-.094.341l-.073.432-.022.45a2.827,2.827,0,0,0,.054.447l.011.054-.468-.123.036-.4.051-.323.069-.381.178-.861.084-.3.08-.221.109-.156a.183.183,0,0,1,.287,0l.363.363.592-.592-1.118-1.118-2.375,2.375-.1-.621.015-.015,2.1-2.1-.3-.3h0l-.182-.182-2.375,2.375-.1-.621.015-.015.959-.959-.548-.548L1.819,114l-.073.022-.1-.029-.054-.054a.354.354,0,0,1-.091-.211l-.022-.171a1.343,1.343,0,0,1,.073-.723l.091-.142.062-.033.076-.011.076.022.047.047.269.269.2-.2-.192-.218a.789.789,0,0,1-.189-.472.586.586,0,0,1,.2-.519.638.638,0,0,1,.207-.152.543.543,0,0,1,.585.113l.062.062a1.215,1.215,0,0,1,.269.537.59.59,0,0,1,0,.3.624.624,0,0,1-.156.258l-.635.635.548.548.788-.788-.3-.3.011-.011L3.38,112.6l.138-.519.552.552-.011.011,5.425,5.425-.3.3-.025-.025-.025.025L8.754,118l-2.371,2.371Zm-.036-.559.08.41,2.327-2.327.378.374.025-.025.025.025.2-.2-1.9-1.9-.225.225,1.253,1.253-.45.45-.025-.025-1.009-1.009-.091-.025L6.8,117.02l-.123.015-.123.029a.709.709,0,0,0-.3.2,1.557,1.557,0,0,0-.28.432,2.883,2.883,0,0,0-.214.686l-.109.537a.38.38,0,0,0,.015.243l.254.091L5.9,118.9l.015-.261a1.9,1.9,0,0,1,.149-.617,1.2,1.2,0,0,1,.127-.236,1.506,1.506,0,0,1,.156-.185l.152-.116.152-.051.16.007a.4.4,0,0,1,.134.08l.831.831-.025.025L6.332,119.8Zm-1.946-1.587.3.08a2.242,2.242,0,0,1-.044-.407l.025-.454L4.735,117a1.609,1.609,0,0,1,.109-.378l.007-.022h.022a1.878,1.878,0,0,0,1.278-.523l.163-.2.163-.243.519.519.225-.225L5.7,114.409l-.225.225.77.77-.7.7-.418-.418c-.065-.062-.116-.065-.178,0l-.1.149-.073.207-.084.294-.174.857-.069.381-.051.323-.033.334Zm-1.746-2.153.069.443,2.324-2.324.283.283.225-.225-.672-.672-.225.225.131.131-.025.025-2.113,2.113Zm4.55.225.025.025.2-.2-.134-.134-.225.225.109.109.025-.025ZM1.79,115.23l.069.443,2.324-2.324.236.236.225-.225-.661-.661-.225.225.171.171-.839.839.084.083-.33.33-.025-.025-.025.025-.058-.058-.948.948Zm3.635-.693.025.025.2-.2-.065-.065-.225.225.04.04.025-.025Zm-2.636-.3.007.007.025-.025.025.025.225-.225-.033-.033Zm-.65-.65.6.6.251-.251-.6-.6.686-.686a.514.514,0,0,0,.138-.225.53.53,0,0,0,0-.261,1.126,1.126,0,0,0-.251-.5L2.9,111.6a.47.47,0,0,0-.508-.1.614.614,0,0,0-.182.138.513.513,0,0,0-.174.457.735.735,0,0,0,.171.432l.24.272-.3.3-.352-.352-.044-.011-.054.007-.033.022-.069.116a1.284,1.284,0,0,0-.062.679l.022.171a.3.3,0,0,0,.073.171l.04.04.065.018.044-.015.359-.359Zm2.447.116.025.025.2-.2L4.7,113.4l-.225.225.091.091.025-.025Zm-.944-.915.051.051.025-.025.025.025.192-.192-.076-.076Zm-.207-.207.156.156.225-.225-.287-.287-.094.359Zm-.9.127-.015-.076-.036-.029-.113-.152-.084-.192a.651.651,0,0,1-.025-.211.285.285,0,0,1,.076-.167.3.3,0,0,1,.251-.113.579.579,0,0,1,.316.174l.069.069.029.109L3,112.209l-.036.069-.428.428Zm0-.152.025.018.341-.341.025-.047v-.062l-.015-.076-.058-.058a.483.483,0,0,0-.272-.156c-.058-.011-.12.025-.192.094a.208.208,0,0,0-.058.123.484.484,0,0,0,.022.182l.076.182.105.138Z" transform="translate(2.957 -65.998)"/>
    <path id="Path_67" data-name="Path 67" d="M98.157,131.7l-.309-.3-1.129,1.169-.89-.861,1.017-1.053-.309-.3-1.017,1.053-.8-.773,1.086-1.126-.309-.3L94.17,130.6l2.614,2.527,1.372-1.423Zm.523-.541-2.614-2.523-.225.232,2.614,2.523.225-.232Zm.69-1.158a.472.472,0,0,1-.439.127,1.241,1.241,0,0,1-.61-.334l.995-1.031-.084-.084a1.752,1.752,0,0,0-.908-.53.746.746,0,0,0-.686.2.758.758,0,0,0-.189.712,1.789,1.789,0,0,0,.57.9,1.685,1.685,0,0,0,.9.516.777.777,0,0,0,.708-.232.74.74,0,0,0,.221-.541,1.188,1.188,0,0,0-.247-.661l-.272.2c.192.32.2.566.036.741h0Zm-1.576-.98a.445.445,0,0,1,.566-.526,1.077,1.077,0,0,1,.458.261l-.744.77a.986.986,0,0,1-.28-.5Zm3.09-.821a.392.392,0,0,1-.105.338.456.456,0,0,1-.443.113,1.514,1.514,0,0,1-.664-.432,1.374,1.374,0,0,1-.436-.643.471.471,0,0,1,.105-.454.355.355,0,0,1,.287-.105.821.821,0,0,1,.4.16l.174-.272a1.076,1.076,0,0,0-.632-.247.658.658,0,0,0-.5.218.748.748,0,0,0-.192.694,1.774,1.774,0,0,0,.57.893,1.794,1.794,0,0,0,.911.541.733.733,0,0,0,.683-.2.692.692,0,0,0,.192-.556,1.241,1.241,0,0,0-.327-.7l-.261.189a.96.96,0,0,1,.243.465h0Zm.995-.9a.158.158,0,0,1-.174.051.8.8,0,0,1-.218-.171l-1.107-1.071.229-.236-.251-.24-.229.236-.661-.639-.033.418.468.454-.167.171.251.24.167-.171,1.089,1.053a2.176,2.176,0,0,0,.4.334.371.371,0,0,0,.247.04.434.434,0,0,0,.243-.145.738.738,0,0,0,.138-.2l-.312-.243a.957.957,0,0,1-.087.116h0Zm-1.434-2.462-.37-.356-.225.232.37.356.225-.232ZM102.692,127l-1.9-1.83-.225.232,1.9,1.83.225-.232Zm.232-.654a.772.772,0,0,0,.9-.926,1.787,1.787,0,0,0-.585-.915,1.663,1.663,0,0,0-.9-.512.772.772,0,0,0-.893.926,2.2,2.2,0,0,0,1.481,1.427Zm-1.118-1.412a.466.466,0,0,1,.094-.457.485.485,0,0,1,.465-.12,1.382,1.382,0,0,1,.661.407,1.4,1.4,0,0,1,.432.646.472.472,0,0,1-.091.457.5.5,0,0,1-.465.123,1.394,1.394,0,0,1-.661-.41,1.443,1.443,0,0,1-.432-.643h0Zm2.89,0-1.035-1a1.216,1.216,0,0,1-.389-.566.442.442,0,0,1,.116-.4.346.346,0,0,1,.2-.105.421.421,0,0,1,.243.044,1.446,1.446,0,0,1,.338.265l1.155,1.115.225-.232-1.165-1.126a2.845,2.845,0,0,0-.418-.349.749.749,0,0,0-.29-.113.659.659,0,0,0-.276.029.635.635,0,0,0-.247.156.591.591,0,0,0-.167.327.842.842,0,0,0,.054.41l-.269-.258-.2.211,1.9,1.83.225-.232h0Zm2.647-3.576a.65.65,0,0,1-.178.516.715.715,0,0,1-.7.189,2.172,2.172,0,0,1-.969-.61,2.512,2.512,0,0,1-.508-.65,1.038,1.038,0,0,1-.127-.552.726.726,0,0,1,.211-.436c.247-.254.592-.251,1.035.015l.16-.327a1.474,1.474,0,0,0-.835-.269.914.914,0,0,0-.65.287,1.022,1.022,0,0,0-.287.606,1.416,1.416,0,0,0,.138.762,2.74,2.74,0,0,0,.614.824,2.991,2.991,0,0,0,.875.614,1.408,1.408,0,0,0,.762.142.992.992,0,0,0,.581-.312.946.946,0,0,0,.276-.719,1.785,1.785,0,0,0-.374-.93l-.334.171a1.283,1.283,0,0,1,.3.683h0Zm1.013-.632a.766.766,0,0,0,.7-.221.775.775,0,0,0,.2-.7,1.787,1.787,0,0,0-.585-.915,1.687,1.687,0,0,0-.9-.512.773.773,0,0,0-.9.926,2.2,2.2,0,0,0,1.481,1.427h0Zm-1.118-1.412a.464.464,0,0,1,.094-.458.5.5,0,0,1,.465-.123,1.821,1.821,0,0,1,1.093,1.053.472.472,0,0,1-.091.458.485.485,0,0,1-.465.12,1.394,1.394,0,0,1-.661-.41,1.412,1.412,0,0,1-.432-.643h0Zm2.89-.007-.984-.951a1.5,1.5,0,0,1-.443-.606.4.4,0,0,1,.1-.392.283.283,0,0,1,.269-.083.882.882,0,0,1,.4.258l1.231,1.191.225-.232-1.1-1.064a1.012,1.012,0,0,1-.33-.5.4.4,0,0,1,.105-.378.308.308,0,0,1,.174-.087.359.359,0,0,1,.214.04,1.471,1.471,0,0,1,.312.251l1.195,1.155.225-.232-1.3-1.256a1.14,1.14,0,0,0-.6-.356.519.519,0,0,0-.454.167.536.536,0,0,0-.149.316.951.951,0,0,0,.065.428.651.651,0,0,0-.385-.094.543.543,0,0,0-.323.163.564.564,0,0,0-.153.316.79.79,0,0,0,.054.4l-.265-.254-.2.211,1.9,1.83.225-.232h0Zm2.142-2.218-.984-.951a1.5,1.5,0,0,1-.443-.606.4.4,0,0,1,.1-.392.28.28,0,0,1,.269-.084.882.882,0,0,1,.4.258l1.231,1.191.225-.232-1.1-1.064a1.012,1.012,0,0,1-.33-.5.4.4,0,0,1,.105-.378.308.308,0,0,1,.174-.087.354.354,0,0,1,.214.04,1.563,1.563,0,0,1,.316.251l1.195,1.155.225-.232-1.3-1.256a1.14,1.14,0,0,0-.6-.356.519.519,0,0,0-.454.167.537.537,0,0,0-.149.316.951.951,0,0,0,.065.428.657.657,0,0,0-.385-.094.524.524,0,0,0-.323.163.563.563,0,0,0-.152.316.79.79,0,0,0,.054.4l-.265-.254-.2.211,1.9,1.83.225-.232h0Zm-.105-4.386-.37-.356-.225.232.37.356.225-.232Zm2.248,2.168-1.9-1.83-.225.232,1.9,1.83.225-.232Zm.857-.8a.746.746,0,0,0,.236-.581.87.87,0,0,0-.29-.577.845.845,0,0,0-.3-.2.564.564,0,0,0-.3-.029,2.447,2.447,0,0,0-.53.218,1.767,1.767,0,0,1-.359.145.323.323,0,0,1-.338-.33.457.457,0,0,1,.149-.294.4.4,0,0,1,.6,0l.178-.269a1.191,1.191,0,0,0-.385-.207.612.612,0,0,0-.341.018.778.778,0,0,0-.323.211.691.691,0,0,0-.218.53.773.773,0,0,0,.261.519.8.8,0,0,0,.3.192.629.629,0,0,0,.316.029,2.052,2.052,0,0,0,.512-.211,1.131,1.131,0,0,1,.338-.134.307.307,0,0,1,.243.1.411.411,0,0,1,.134.29.447.447,0,0,1-.142.316.433.433,0,0,1-.334.149.7.7,0,0,1-.407-.174l-.174.28c.458.341.846.345,1.166.015h0Zm1.285-1.333a.759.759,0,0,0,.236-.581.87.87,0,0,0-.29-.577.845.845,0,0,0-.3-.2.564.564,0,0,0-.3-.029,2.574,2.574,0,0,0-.53.214,1.767,1.767,0,0,1-.359.145.29.29,0,0,1-.232-.087.3.3,0,0,1-.1-.243.457.457,0,0,1,.149-.294.4.4,0,0,1,.6,0l.178-.269a1.156,1.156,0,0,0-.385-.207.614.614,0,0,0-.341.018.778.778,0,0,0-.323.211.691.691,0,0,0-.218.53.773.773,0,0,0,.261.519.831.831,0,0,0,.3.192.629.629,0,0,0,.316.029,2.167,2.167,0,0,0,.512-.211,1.131,1.131,0,0,1,.338-.134.307.307,0,0,1,.243.1.411.411,0,0,1,.134.29.447.447,0,0,1-.142.316.433.433,0,0,1-.334.149.707.707,0,0,1-.407-.174l-.174.28q.686.512,1.166.015h0Zm-1.245-3.29-.37-.356-.225.232.37.356.225-.232Zm2.244,2.168-1.9-1.83-.225.232,1.9,1.83.225-.232Zm.232-.654a.766.766,0,0,0,.7-.221.775.775,0,0,0,.2-.7,1.787,1.787,0,0,0-.585-.915,1.687,1.687,0,0,0-.9-.512.772.772,0,0,0-.9.926,2.2,2.2,0,0,0,1.481,1.427h0Zm-1.118-1.412a.464.464,0,0,1,.094-.457.5.5,0,0,1,.465-.123,1.821,1.821,0,0,1,1.093,1.053.472.472,0,0,1-.091.458.5.5,0,0,1-.465.123,1.394,1.394,0,0,1-.661-.41,1.412,1.412,0,0,1-.432-.643h0Zm2.89,0-1.035-1a1.245,1.245,0,0,1-.389-.566.442.442,0,0,1,.116-.4.346.346,0,0,1,.2-.105.421.421,0,0,1,.243.044,1.555,1.555,0,0,1,.338.265l1.155,1.115.225-.232-1.166-1.126a2.845,2.845,0,0,0-.418-.349.811.811,0,0,0-.29-.113.66.66,0,0,0-.276.029.635.635,0,0,0-.247.156.615.615,0,0,0-.167.327.842.842,0,0,0,.054.41l-.269-.258-.2.211,1.9,1.83.225-.232h0Zm1.8-2.284a.766.766,0,0,0,.7-.221.775.775,0,0,0,.2-.7,1.787,1.787,0,0,0-.585-.915,1.7,1.7,0,0,0-.9-.512.772.772,0,0,0-.9.926,2.2,2.2,0,0,0,1.481,1.427h0Zm-1.118-1.412a.468.468,0,0,1,.094-.458.485.485,0,0,1,.465-.12,1.821,1.821,0,0,1,1.093,1.053.472.472,0,0,1-.091.457.5.5,0,0,1-.465.123,1.394,1.394,0,0,1-.661-.41,1.412,1.412,0,0,1-.432-.643h0Zm2.952-.069-1.645-1.587.261-.269-.251-.243-.261.269-.174-.171a.623.623,0,0,1-.192-.272.246.246,0,0,1,.084-.211.743.743,0,0,1,.152-.12l-.243-.3a1.251,1.251,0,0,0-.247.185.524.524,0,0,0-.149.272.489.489,0,0,0,.047.29,1.387,1.387,0,0,0,.294.363l.2.2-.2.207.251.24.2-.207L122.97,106l.225-.232h0Zm1.463-1.514-2.614-2.527-.243.254,2.614,2.523.243-.251Zm.617-.639-1.035-1a1.216,1.216,0,0,1-.389-.566.439.439,0,0,1,.116-.4.357.357,0,0,1,.2-.105.421.421,0,0,1,.243.044,1.446,1.446,0,0,1,.338.265l1.155,1.115.225-.232-1.166-1.126a2.844,2.844,0,0,0-.418-.349.749.749,0,0,0-.29-.113.605.605,0,0,0-.276.029.635.635,0,0,0-.247.156.591.591,0,0,0-.167.327.842.842,0,0,0,.054.41l-.269-.258-.2.211,1.9,1.83.225-.232h0Zm2.28-2.36-2.614-2.527-.229.236.94.9a.722.722,0,0,0-.349-.022.528.528,0,0,0-.276.149.612.612,0,0,0-.174.4.993.993,0,0,0,.131.534,2.318,2.318,0,0,0,.472.606,1.757,1.757,0,0,0,.9.526.708.708,0,0,0,.668-.171.5.5,0,0,0,.134-.287.7.7,0,0,0-.051-.367l.24.232.211-.218h0Zm-2.32-.592a.426.426,0,0,1,.069-.425.438.438,0,0,1,.45-.1,1.632,1.632,0,0,1,.686.45,1.322,1.322,0,0,1,.41.61.429.429,0,0,1-.08.425.437.437,0,0,1-.432.091,1.465,1.465,0,0,1-.657-.414,1.557,1.557,0,0,1-.45-.639h0Zm.657-2.175-.37-.356-.225.232.37.356.225-.232Zm2.248,2.168-1.9-1.83-.225.232,1.9,1.83.225-.232Zm1.26-1.3.236-.243a1.21,1.21,0,0,1-.283-.16c-.087-.065-.283-.243-.581-.53l-.428-.414a2.5,2.5,0,0,0-.428-.349.535.535,0,0,0-.378-.062.814.814,0,0,0-.421.251.836.836,0,0,0-.276.563,1.052,1.052,0,0,0,.251.628l.265-.189a.734.734,0,0,1-.171-.4.479.479,0,0,1,.16-.32.431.431,0,0,1,.374-.156.644.644,0,0,1,.334.2l.08.08a2.286,2.286,0,0,1-.29.526,1.1,1.1,0,0,0-.2.418.674.674,0,0,0,.04.356.938.938,0,0,0,.232.341.8.8,0,0,0,.519.251.6.6,0,0,0,.479-.2.76.76,0,0,0,.185-.33,1.243,1.243,0,0,0,.029-.443,1.23,1.23,0,0,0,.28.178h0Zm-.9-.737a1.327,1.327,0,0,1,.3.4.619.619,0,0,1,.047.341.537.537,0,0,1-.145.3.365.365,0,0,1-.28.127.408.408,0,0,1-.287-.134.522.522,0,0,1-.123-.182.319.319,0,0,1-.015-.192.946.946,0,0,1,.134-.269,1.74,1.74,0,0,0,.247-.5l.12.113h0Z" transform="translate(-52.647 -59.561) rotate(1)" stroke="#000" stroke-width="0.2"/>
    <g id="Group_2" data-name="Group 2" transform="translate(9 2.999)">
      <g id="Ellipse_1" data-name="Ellipse 1" transform="translate(43.484 10.932)">
        <circle id="Ellipse_4" data-name="Ellipse 4" cx="5.266" cy="5.266" r="5.266" transform="translate(0 0)" fill="#bcbec0"/>
      </g>
      <g id="Ellipse_2" data-name="Ellipse 2" transform="translate(53.64 21.088)">
        <circle id="Ellipse_5" data-name="Ellipse 5" cx="5.266" cy="5.266" r="5.266" transform="translate(0 0)" fill="#bcbec0"/>
      </g>
      <g id="Ellipse_3" data-name="Ellipse 3" transform="translate(32.554)">
        <circle id="Ellipse_6" data-name="Ellipse 6" cx="5.266" cy="5.266" r="5.266" transform="translate(0 10.397) rotate(-80.78)" fill="#bcbec0"/>
      </g>
      <g id="Rectangle_5" data-name="Rectangle 5" transform="translate(0 8.186)">
        <rect id="Rectangle_8" data-name="Rectangle 8" width="41.015" height="10.533" transform="translate(0 29.002) rotate(-45)" fill="#eb7f29"/>
        <path id="Path_22" data-name="Path 22" d="M7.448,82.889,0,75.441l29-29,7.448,7.448ZM1.8,75.441l5.643,5.642,27.2-27.2L29,48.243,1.8,75.441Z" transform="translate(0.001 -46.439)"/>
      </g>
      <g id="Rectangle_6" data-name="Rectangle 6" transform="translate(10.156 18.342)">
        <rect id="Rectangle_9" data-name="Rectangle 9" width="41.015" height="10.533" transform="translate(0 29.002) rotate(-45)" fill="#fff"/>
        <path id="Path_23" data-name="Path 23" d="M71.088,146.52l-7.448-7.448,29-29,7.448,7.448Zm-5.643-7.448,5.643,5.642,27.2-27.2-5.643-5.643-27.2,27.2h0Z" transform="translate(-63.64 -110.07)"/>
      </g>
      <g id="Rectangle_7" data-name="Rectangle 7" transform="translate(20.313 28.498)">
        <rect id="Rectangle_10" data-name="Rectangle 10" width="41.015" height="10.533" transform="translate(0 29.002) rotate(-45)" fill="#00a14b"/>
        <path id="Path_24" data-name="Path 24" d="M134.728,210.16l-7.448-7.448,29-29,7.448,7.448Zm-5.643-7.448,5.643,5.642,27.2-27.2-5.643-5.643-27.2,27.2h0Z" transform="translate(-127.28 -173.71)"/>
      </g>
    </g>
  </g>
</svg>
